<svg width="70" height="70" viewBox="0 0 70 70" fill="none" xmlns="http://www.w3.org/2000/svg">
<g clip-path="url(#clip0_2078_1191)">
<path d="M68.6797 31.8813L38.1171 1.32033C36.3581 -0.439785 33.5034 -0.439785 31.7422 1.32033L25.3957 7.66682L33.4465 15.7176C35.3174 15.0854 37.4628 15.5096 38.9541 17.0009C40.4525 18.5018 40.8736 20.6655 40.2261 22.5424L47.9849 30.3014C49.8621 29.6547 52.0279 30.0731 53.5272 31.5748C55.6226 33.6694 55.6226 37.0641 53.5272 39.16C51.4313 41.2562 48.0366 41.2562 45.9396 39.16C44.3635 37.5822 43.9741 35.2676 44.772 33.3259L37.5363 26.0902L37.5355 45.1316C38.06 45.3909 38.5391 45.7335 38.9541 46.146C41.0494 48.2406 41.0494 51.6356 38.9541 53.7331C36.8582 55.8282 33.4618 55.8282 31.369 53.7331C29.2736 51.6356 29.2736 48.2408 31.369 46.1463C31.8711 45.6439 32.4678 45.2461 33.1247 44.9757V25.7569C32.4669 25.4884 31.8698 25.0903 31.369 24.5863C29.7814 23.0009 29.3997 20.6715 30.2131 18.7222L22.2769 10.7851L1.3207 31.74C-0.440233 33.5017 -0.440233 36.3567 1.3207 38.1171L31.8838 68.6787C33.6434 70.439 36.4975 70.439 38.2593 68.6787L68.6794 38.259C70.4398 36.4981 70.4401 33.6415 68.6797 31.8813Z" fill="#DE4C36"/>
</g>
<defs>
<clipPath id="clip0_2078_1191">
<rect width="70" height="70" fill="white"/>
</clipPath>
</defs>
</svg>
