<svg width="422" height="410" viewBox="0 0 422 410" fill="none" xmlns="http://www.w3.org/2000/svg">
<path opacity="0.05" d="M26.81 227.361C11.8019 215.879 3.08286 200.711 0.652902 181.859C-1.77706 163.007 2.57465 145.786 13.708 130.197C15.4245 127.954 17.266 125.806 19.2326 123.754C21.1991 121.702 23.2908 119.745 25.5075 117.884L153.145 16.3584C166.946 5.57635 182.418 0.124241 199.563 0.00210576C216.708 -0.120024 232.159 5.08153 245.916 15.6068L392.245 127.557C406.003 138.082 415.065 151.635 419.432 168.215C423.799 184.794 422.584 201.154 415.787 217.295L351.183 367.045C349.967 369.672 348.641 372.312 347.204 374.968C345.767 377.623 344.191 380.072 342.474 382.316C330.841 397.522 315.531 406.26 296.545 408.53C277.558 410.8 260.436 406.098 245.178 394.425C234.672 386.387 227.015 376.182 222.206 363.809C217.396 351.435 216.364 338.79 219.109 325.872L225.196 296.147C225.852 292.698 225.406 289.393 223.859 286.233C222.311 283.073 220.161 280.44 217.41 278.335L146.121 223.795C143.37 221.69 140.267 220.304 136.812 219.637C133.357 218.969 130.05 219.404 126.893 220.94L99.7947 234.59C88.0451 240.618 75.57 242.929 62.3694 241.524C49.1688 240.119 37.3157 235.398 26.81 227.361ZM50.8215 198.308C55.574 201.944 60.8424 203.999 66.6267 204.472C72.4109 204.945 77.9247 203.829 83.1679 201.122L109.98 187.846C119.644 182.988 129.772 181.153 140.363 182.341C150.955 183.528 160.503 187.375 169.007 193.881L240.296 248.421C248.8 254.928 254.963 263.199 258.784 273.236C262.605 283.273 263.656 293.561 261.937 304.102L256.136 333.453C254.895 339.222 255.26 344.835 257.229 350.294C259.199 355.753 262.561 360.301 267.313 363.937C274.317 369.295 282.084 371.582 290.615 370.798C299.146 370.013 306.207 366.227 311.797 359.438C311.606 359.688 313.168 357.128 316.482 351.76L380.8 202.383C384.198 194.313 384.892 186.15 382.881 177.893C380.87 169.637 376.363 162.829 369.359 157.471L223.031 45.5206C216.027 40.1623 208.215 37.5449 199.595 37.6683C190.975 37.7916 183.34 40.6445 176.689 46.227L49.3379 147.379C47.6933 148.492 45.7267 150.544 43.4381 153.535C38.0981 160.515 36.1802 168.335 37.6843 176.994C39.1885 185.654 43.5676 192.758 50.8215 198.308ZM261.492 193.504C265.745 196.757 270.406 198.05 275.476 197.384C280.545 196.718 284.701 194.266 287.943 190.029C291.186 185.791 292.465 181.138 291.782 176.071C291.098 171.003 288.631 166.843 284.378 163.59C280.126 160.336 275.465 159.043 270.395 159.709C265.325 160.375 261.169 162.827 257.927 167.065C254.685 171.302 253.406 175.955 254.089 181.022C254.772 186.09 257.24 190.25 261.492 193.504ZM314.394 186.554C318.647 189.807 323.308 191.101 328.378 190.435C333.447 189.769 337.603 187.317 340.846 183.079C344.088 178.841 345.367 174.189 344.684 169.121C344 164.054 341.533 159.893 337.28 156.64C333.028 153.387 328.367 152.093 323.297 152.759C318.227 153.425 314.071 155.877 310.829 160.115C307.587 164.353 306.308 169.005 306.991 174.073C307.674 179.14 310.142 183.301 314.394 186.554ZM268.623 246.382C272.875 249.635 277.536 250.928 282.606 250.262C287.676 249.596 291.832 247.144 295.074 242.907C298.316 238.669 299.595 234.016 298.912 228.949C298.229 223.881 295.761 219.721 291.509 216.468C287.256 213.214 282.595 211.921 277.526 212.587C272.456 213.253 268.3 215.705 265.058 219.943C261.815 224.18 260.536 228.833 261.219 233.9C261.903 238.968 264.37 243.128 268.623 246.382ZM321.525 239.432C325.777 242.685 330.438 243.979 335.508 243.313C340.578 242.647 344.734 240.195 347.976 235.957C351.218 231.719 352.497 227.067 351.814 221.999C351.131 216.932 348.663 212.771 344.411 209.518C340.158 206.265 335.497 204.971 330.428 205.637C325.358 206.303 321.202 208.755 317.96 212.993C314.717 217.231 313.438 221.883 314.121 226.951C314.805 232.018 317.272 236.179 321.525 239.432ZM169.288 158.529C172.539 161.016 176.039 162.014 179.786 161.522C183.533 161.03 186.647 159.163 189.126 155.922L200.569 140.965L215.577 152.448C218.829 154.935 222.328 155.933 226.075 155.441C229.823 154.949 232.936 153.082 235.415 149.841C237.894 146.601 238.882 143.108 238.376 139.362C237.871 135.617 235.993 132.5 232.741 130.012L217.733 118.53L229.176 103.573C231.655 100.332 232.643 96.8394 232.137 93.0938C231.632 89.3483 229.754 86.2317 226.502 83.7439C223.25 81.2561 219.751 80.2583 216.004 80.7506C212.257 81.2429 209.143 83.1094 206.664 86.35L195.221 101.307L180.213 89.8249C176.961 87.3371 173.462 86.3393 169.714 86.8316C165.967 87.3239 162.854 89.1903 160.375 92.431C157.895 95.6717 156.908 99.1648 157.413 102.91C157.918 106.656 159.797 109.772 163.049 112.26L178.057 123.742L166.614 138.699C164.134 141.94 163.147 145.433 163.652 149.179C164.157 152.924 166.036 156.041 169.288 158.529Z" fill="#F0EA6E"/>
</svg>
